<!DOCTYPE svg PUBLIC "-//W3C//DTD SVG 20010904//EN" "http://www.w3.org/TR/2001/REC-SVG-20010904/DTD/svg10.dtd">
<svg version="1.0" xmlns="http://www.w3.org/2000/svg" width="1600px" height="800px" viewBox="0 0 16000 8000" preserveAspectRatio="xMidYMid meet">
<g id="layer101" fill="#000000" stroke="none">
 <path d="M4726 5708 c-2 -7 -9 -46 -16 -85 -6 -40 -15 -75 -20 -78 -4 -2 -10 -31 -14 -63 -5 -45 -12 -62 -31 -76 -19 -15 -23 -22 -14 -32 17 -20 14 -900 -2 -920 -9 -11 -9 -18 -1 -26 18 -18 15 -112 -5 -147 -17 -30 -17 -32 0 -62 21 -38 22 -77 2 -115 -8 -16 -15 -36 -15 -45 0 -8 -21 -36 -47 -62 -27 -25 -85 -82 -129 -125 -45 -44 -90 -94 -100 -112 -17 -30 -60 -80 -68 -80 -13 0 -73 -63 -101 -105 -40 -60 -60 -80 -114 -119 -23 -17 -41 -37 -41 -47 0 -9 -11 -24 -25 -33 -14 -9 -25 -24 -25 -34 -1 -24 -21 -48 -49 -57 -37 -11 -96 -71 -114 -113 -33 -81 -41 -123 -29 -143 7 -10 12 -30 12 -43 0 -26 19 -33 117 -43 71 -7 159 19 167 49 3 13 20 30 37 38 18 9 40 31 50 49 9 18 36 46 58 63 26 19 51 51 69 85 26 55 62 100 92 119 9 5 38 42 65 82 27 39 57 81 67 92 10 10 18 22 18 26 0 4 7 14 15 23 8 9 37 43 64 76 81 98 171 190 171 175 0 -8 10 -27 23 -42 42 -51 57 -72 57 -81 0 -5 6 -15 13 -22 28 -32 37 -45 37 -52 0 -9 80 -83 90 -83 4 0 10 -10 14 -23 6 -25 71 -67 103 -67 11 0 25 -11 31 -25 6 -14 18 -25 26 -25 15 0 76 -67 76 -84 0 -17 59 -66 102 -84 21 -9 38 -24 38 -32 0 -9 13 -29 29 -44 17 -16 31 -40 33 -55 3 -22 8 -26 31 -24 25 2 31 -3 44 -35 11 -28 25 -42 54 -55 21 -9 42 -17 45 -17 3 0 19 -12 34 -27 25 -23 38 -27 97 -28 37 -1 75 -5 83 -8 25 -11 39 6 51 59 19 90 22 114 10 114 -6 0 -11 7 -11 15 0 8 -9 19 -20 25 -11 6 -20 17 -20 25 0 8 -4 15 -9 15 -5 0 -12 10 -15 23 -8 29 -70 97 -88 97 -8 0 -25 9 -37 19 -13 11 -26 21 -29 23 -4 2 -16 20 -26 41 -11 20 -27 37 -36 37 -9 0 -26 13 -37 28 -12 16 -38 37 -58 46 -20 10 -53 36 -73 58 -20 23 -62 57 -92 77 -30 19 -63 45 -74 59 -10 13 -36 35 -58 49 -26 16 -46 38 -56 64 -8 21 -19 39 -24 39 -4 0 -8 6 -8 13 0 6 -28 44 -63 83 -34 39 -69 80 -78 91 -12 15 -16 45 -18 116 -1 53 -5 107 -10 120 -6 15 -6 40 0 63 14 62 10 107 -11 139 -23 34 -27 109 -8 150 9 20 9 34 -1 61 -9 25 -13 130 -13 382 0 204 -4 355 -10 366 -7 12 -6 22 1 29 18 18 14 163 -5 204 -26 53 -72 83 -128 83 -29 0 -48 -5 -50 -12z"/>
 <path d="M13501 5456 c-13 -13 -39 -26 -62 -30 -21 -3 -39 -11 -39 -16 0 -6 -9 -10 -20 -10 -11 0 -20 4 -20 9 0 9 -101 32 -112 25 -3 -2 -9 -18 -13 -34 -6 -29 -28 -40 -40 -20 -3 6 -21 10 -38 10 -24 0 -39 -8 -57 -30 -18 -22 -33 -30 -56 -30 -18 0 -45 -7 -60 -15 -16 -8 -39 -15 -51 -15 -12 0 -34 -11 -49 -24 -24 -20 -28 -32 -32 -90 -4 -61 -3 -66 16 -66 12 0 24 -4 27 -10 3 -5 30 -10 60 -10 30 0 57 5 60 10 3 6 21 10 38 10 18 0 49 9 70 20 22 12 56 20 85 20 26 0 53 5 58 10 27 27 299 47 560 42 127 -2 131 -3 142 -26 8 -19 21 -25 66 -30 30 -4 60 -14 67 -22 6 -8 17 -14 25 -14 21 0 66 -50 75 -84 5 -17 19 -36 31 -41 12 -6 26 -23 31 -40 6 -16 21 -40 35 -51 22 -19 24 -27 18 -66 -6 -37 -3 -47 13 -62 11 -10 18 -23 15 -28 -3 -5 7 -25 22 -45 25 -33 29 -48 32 -125 4 -78 7 -88 23 -88 16 0 19 -8 19 -49 0 -28 -4 -53 -10 -56 -12 -7 -14 -55 -2 -55 24 0 41 -82 47 -233 4 -86 11 -160 16 -163 12 -7 12 -51 0 -59 -5 -3 -10 -50 -10 -105 0 -55 4 -100 10 -100 12 0 12 -37 -1 -42 -6 -2 -13 -51 -16 -113 -3 -61 -12 -124 -20 -142 -8 -17 -14 -38 -14 -46 0 -9 -9 -22 -20 -30 -19 -13 -20 -19 -9 -93 6 -43 15 -80 20 -82 5 -2 9 -15 9 -29 0 -31 44 -107 73 -126 62 -40 142 -26 184 33 15 21 36 41 47 44 15 4 17 11 12 38 -3 18 -6 40 -6 48 1 30 6 65 12 80 9 22 21 92 19 115 -1 11 -3 175 -5 365 -2 190 -7 353 -11 364 -6 13 -3 21 8 28 25 14 22 48 -4 48 -19 0 -21 4 -16 39 3 22 2 43 -1 46 -23 22 -39 116 -34 192 3 60 1 94 -11 125 -8 24 -18 79 -22 122 -5 61 -11 83 -24 93 -13 8 -20 31 -25 78 -6 60 -11 70 -46 107 -29 29 -40 48 -40 70 0 28 -30 68 -51 68 -4 0 -26 34 -48 75 -39 70 -48 80 -128 131 -48 31 -94 59 -103 62 -8 3 -17 8 -20 11 -21 24 -71 48 -104 49 -21 1 -45 7 -53 14 -9 7 -38 11 -73 10 -40 -2 -76 4 -116 19 -53 20 -62 21 -108 8 -67 -17 -133 -13 -167 12 -35 25 -51 24 -78 -5z"/>
 <path d="M12613 4903 c-7 -2 -13 -13 -13 -24 0 -13 -7 -19 -24 -19 -14 0 -28 -4 -31 -10 -11 -17 -44 -11 -55 10 -7 14 -21 20 -43 20 -38 0 -57 -15 -57 -46 0 -23 -23 -34 -73 -34 -29 0 -59 -14 -89 -43 -14 -13 -22 -15 -36 -6 -14 9 -27 7 -60 -10 -23 -12 -42 -17 -42 -11 0 5 -11 10 -25 10 -19 0 -25 -5 -25 -22 0 -12 -14 -34 -32 -49 -20 -17 -29 -31 -23 -36 10 -8 11 -11 14 -64 1 -26 4 -29 21 -24 13 4 20 2 20 -7 0 -8 -12 -13 -30 -14 -28 -1 -31 2 -36 37 -5 29 -11 39 -25 39 -21 0 -21 -4 -19 -93 1 -40 -3 -62 -14 -73 -24 -23 -20 -44 8 -44 19 0 26 -7 31 -30 4 -16 11 -30 15 -30 13 0 90 40 125 65 47 35 55 38 49 21 -4 -10 -1 -16 7 -17 8 -1 1 -4 -16 -8 -24 -5 -30 -12 -30 -31 0 -18 5 -25 18 -24 17 2 17 0 3 -15 -9 -10 -16 -23 -16 -29 0 -7 -15 -12 -34 -12 -18 0 -45 -9 -59 -20 -30 -24 -35 -25 -58 -4 -17 15 -19 15 -30 -9 -9 -21 -9 -30 1 -42 10 -12 7 -18 -18 -32 -32 -18 -47 -48 -30 -59 13 -8 -38 -34 -67 -34 -34 0 -85 -47 -85 -76 0 -14 -4 -22 -10 -19 -28 17 -105 -58 -116 -115 -6 -29 -5 -30 32 -31 33 0 35 -2 17 -9 -12 -5 -27 -18 -33 -30 -9 -17 -14 -19 -25 -10 -8 7 -19 9 -25 5 -13 -8 -13 -35 1 -35 7 0 9 -12 5 -35 -6 -32 -5 -35 16 -35 16 0 31 12 48 40 14 22 28 40 32 40 5 0 8 7 8 15 0 8 9 24 21 36 13 13 19 28 15 41 -8 32 5 78 21 78 13 0 13 -3 3 -15 -10 -12 -8 -18 11 -35 32 -26 37 -25 70 10 29 29 39 70 18 70 -5 0 -7 5 -4 10 9 15 25 12 25 -5 0 -8 7 -15 15 -15 9 0 15 9 15 25 0 15 -6 25 -14 25 -8 0 -16 7 -20 15 -4 10 1 15 14 15 11 0 20 -7 20 -15 0 -8 9 -15 20 -15 11 0 23 7 26 15 4 8 11 15 16 15 9 0 73 50 125 98 13 12 26 22 28 22 2 0 21 16 42 35 21 19 50 40 65 46 16 6 28 17 28 23 0 20 67 49 112 49 27 0 56 8 79 23 29 18 53 24 116 25 57 2 81 7 90 18 10 14 15 14 33 3 12 -7 66 -16 121 -19 55 -3 102 -10 105 -15 3 -4 14 -8 25 -8 48 0 199 -108 199 -143 0 -8 7 -20 15 -27 8 -7 17 -27 21 -46 3 -19 10 -34 15 -34 12 0 11 -157 -1 -165 -5 -3 -10 -17 -10 -30 0 -70 -119 -215 -205 -251 -18 -7 -35 -17 -37 -21 -1 -5 -32 -18 -68 -31 -83 -28 -163 -29 -208 -2 -18 11 -38 20 -46 20 -7 0 -21 9 -31 20 -10 11 -24 20 -30 20 -7 0 -15 7 -19 15 -7 18 -43 20 -49 3 -3 -10 -7 -10 -21 1 -14 12 -19 11 -35 -3 -12 -11 -42 -18 -97 -20 -43 -2 -95 -10 -114 -17 -32 -11 -89 -63 -90 -81 0 -4 -15 -24 -34 -44 -36 -39 -52 -90 -40 -127 11 -33 81 -125 101 -131 10 -3 52 -5 93 -4 58 1 83 -4 111 -19 19 -12 55 -24 80 -28 24 -4 53 -14 64 -21 11 -8 27 -14 37 -14 9 0 23 -6 30 -13 7 -7 30 -21 51 -31 65 -30 115 -13 235 79 7 5 21 17 31 26 23 20 50 31 62 23 11 -6 -6 -23 -46 -46 -17 -9 -31 -26 -33 -37 -3 -19 2 -21 40 -21 24 0 68 7 98 15 78 21 92 20 88 -7 -3 -21 -10 -24 -71 -28 -62 -5 -70 -8 -97 -40 l-29 -34 -35 17 c-42 19 -69 13 -105 -26 -38 -42 -39 -157 -1 -157 6 0 19 -9 30 -20 15 -15 33 -20 73 -20 29 0 57 -4 62 -9 40 -39 500 -40 590 -1 11 5 47 11 79 15 33 3 64 10 70 14 6 5 29 12 51 16 22 4 51 14 65 21 14 7 54 25 90 40 94 38 234 111 262 137 13 12 42 32 64 44 21 12 63 41 91 65 45 36 53 48 53 77 0 28 2 32 15 21 12 -10 21 -8 50 10 30 19 35 27 35 61 0 32 -3 39 -19 39 -28 0 -91 -39 -91 -56 0 -8 -4 -14 -10 -14 -19 0 -60 -52 -60 -77 0 -24 -2 -25 -40 -19 -33 5 -47 2 -80 -20 -22 -15 -40 -32 -40 -38 0 -16 -40 -40 -72 -43 -15 -2 -37 -12 -48 -23 -11 -11 -27 -20 -35 -20 -8 0 -29 -8 -47 -18 -18 -10 -89 -33 -158 -51 -69 -18 -134 -36 -145 -41 -11 -5 -53 -11 -94 -14 -41 -3 -79 -10 -85 -16 -13 -13 -41 -13 -64 0 -9 5 -43 12 -74 15 -46 5 -58 10 -58 24 0 16 10 17 108 13 106 -4 334 20 357 37 5 5 31 12 58 15 26 4 47 11 47 17 0 5 9 9 21 9 12 0 35 6 52 14 18 7 57 23 87 36 121 50 140 61 140 75 0 17 -45 21 -55 5 -3 -5 -15 -10 -25 -10 -10 0 -31 -5 -47 -12 -15 -6 -62 -19 -103 -29 -154 -35 -175 -41 -185 -50 -15 -15 -55 -11 -55 6 0 12 -14 15 -70 15 -43 0 -79 5 -93 14 -12 7 -40 16 -62 20 -22 3 -60 15 -85 27 -24 12 -61 24 -82 27 -39 5 -39 5 -18 24 11 10 20 23 20 28 0 6 7 10 15 10 8 0 24 10 35 23 20 20 22 21 31 5 11 -19 39 -25 39 -8 0 6 9 10 20 10 11 0 20 4 20 10 0 5 16 25 35 45 28 27 34 39 26 53 -7 13 -2 25 20 50 16 18 29 28 29 22 0 -5 7 -10 15 -10 8 0 15 7 15 15 0 8 -5 15 -10 15 -6 0 1 17 15 37 14 21 25 43 25 50 0 7 4 13 8 13 4 0 13 15 21 33 7 17 15 26 18 20 8 -20 31 -15 44 9 7 13 18 28 24 35 21 20 39 167 26 204 -16 47 -14 106 5 117 13 7 15 21 11 73 -5 67 -32 186 -47 204 -4 5 -11 27 -15 48 -4 21 -14 41 -21 44 -8 3 -14 14 -14 24 0 11 -6 22 -14 25 -8 3 -17 17 -21 31 -9 39 -242 263 -273 263 -19 0 -23 -4 -19 -19 3 -12 -1 -22 -11 -26 -21 -8 -23 -3 -24 46 0 47 -12 69 -35 69 -8 0 -26 9 -40 20 -14 11 -38 20 -54 20 -15 0 -31 5 -34 10 -3 6 -22 10 -41 10 -19 0 -34 -4 -34 -10 0 -5 -21 -10 -46 -10 -38 0 -47 4 -51 20 -7 27 -49 37 -72 16 -22 -20 -31 -20 -31 -2 0 8 -4 17 -9 20 -12 8 -163 16 -178 9z m-553 -314 c0 -11 -4 -17 -10 -14 -5 3 -10 13 -10 21 0 8 5 14 10 14 6 0 10 -9 10 -21z m9 -106 c34 8 23 -6 -27 -38 l-47 -30 3 37 c4 36 29 56 43 35 4 -6 16 -7 28 -4z m173 -105 c-6 -6 -15 -8 -19 -4 -4 4 -1 11 7 16 19 12 27 3 12 -12z"/>
 <path d="M2030 4850 c0 -5 -10 -10 -23 -10 -27 0 -61 -33 -77 -74 -9 -24 -14 -253 -9 -461 0 -22 -5 -72 -11 -112 -11 -66 -10 -77 10 -133 13 -35 19 -72 16 -85 -4 -14 -1 -29 7 -37 11 -9 11 -21 4 -51 -7 -27 -6 -64 3 -122 10 -66 11 -96 1 -142 -8 -39 -9 -78 -3 -120 10 -73 -4 -183 -23 -183 -7 0 -26 7 -41 15 -18 9 -57 15 -100 15 -38 0 -74 4 -80 10 -10 10 -111 -14 -128 -31 -13 -12 -219 -12 -232 0 -5 6 -28 13 -51 17 -34 5 -44 3 -49 -10 -3 -9 -11 -16 -18 -17 -6 0 -32 -26 -58 -57 -42 -50 -48 -63 -48 -103 0 -41 4 -49 43 -83 l42 -38 88 5 c49 3 95 11 103 18 10 8 91 12 272 13 245 1 258 0 279 -19 11 -11 24 -34 27 -52 4 -17 13 -34 20 -36 7 -3 48 3 92 13 56 13 84 25 97 42 16 19 29 23 78 23 32 1 64 6 71 13 15 15 60 16 76 0 7 -7 47 -11 104 -11 51 0 134 0 183 -1 215 -2 277 1 285 14 6 10 8 10 12 -1 5 -16 86 -15 102 1 13 13 113 13 121 0 8 -13 72 -13 80 0 4 6 57 10 126 10 100 0 119 2 119 15 0 20 -69 158 -84 167 -6 4 -50 8 -98 8 -48 0 -89 4 -93 9 -3 5 -97 10 -212 10 -209 1 -279 7 -289 22 -7 12 -141 11 -149 -1 -8 -14 -68 -13 -82 1 -7 7 -56 14 -110 17 -68 3 -100 9 -106 18 -4 8 -16 14 -27 14 -17 0 -18 11 -17 208 2 157 -1 217 -12 250 -12 34 -12 48 -3 63 15 24 15 44 0 87 -10 28 -10 36 0 39 16 6 15 25 -5 65 -9 18 -21 42 -26 53 -6 11 -9 62 -8 113 1 51 -3 117 -9 146 -21 101 -31 201 -33 333 l-2 133 -27 0 c-15 0 -30 5 -33 10 -3 6 -24 10 -46 10 -21 0 -39 -4 -39 -10z"/>
 <path d="M8024 4762 c-39 -14 -43 -20 -60 -74 -9 -32 -32 -80 -49 -107 -18 -27 -41 -75 -50 -107 -10 -33 -29 -68 -41 -79 -13 -11 -38 -54 -55 -95 -17 -41 -35 -79 -39 -85 -4 -5 -11 -21 -15 -35 -4 -14 -22 -47 -41 -75 -18 -27 -36 -63 -39 -80 -4 -16 -15 -37 -25 -45 -9 -9 -22 -44 -28 -82 -7 -36 -26 -92 -42 -123 -17 -31 -30 -64 -30 -74 0 -9 -7 -24 -15 -35 -13 -17 -16 -15 -59 30 -25 27 -56 60 -68 72 -13 13 -42 32 -66 43 -59 26 -192 157 -257 254 -30 44 -68 89 -85 100 -32 21 -90 115 -90 147 0 10 -6 21 -14 24 -8 3 -18 19 -21 35 -4 16 -10 29 -14 29 -5 0 -20 22 -34 49 -21 41 -23 52 -12 61 15 13 13 76 -4 108 -6 11 -11 31 -11 44 -1 69 -112 104 -186 59 -34 -21 -99 -107 -158 -211 -20 -36 -48 -83 -61 -105 -13 -22 -29 -62 -35 -90 -6 -27 -24 -75 -41 -105 -17 -30 -35 -77 -40 -104 -5 -27 -16 -57 -24 -66 -8 -9 -15 -25 -15 -36 0 -10 -7 -32 -16 -49 -9 -16 -18 -55 -21 -85 -3 -30 -9 -59 -13 -65 -7 -9 -42 -115 -89 -271 -13 -43 -21 -98 -21 -140 0 -56 -4 -74 -20 -92 -20 -21 -28 -62 -12 -62 5 0 19 -33 32 -74 13 -41 34 -86 47 -100 21 -23 32 -26 85 -26 59 0 62 1 104 46 29 31 45 57 49 82 3 20 10 52 14 69 6 20 5 49 -2 74 -13 54 17 297 42 343 10 17 21 58 25 90 3 33 10 64 15 70 5 6 12 35 16 63 4 29 11 55 16 59 5 3 9 16 9 30 0 13 9 33 20 44 11 11 20 30 20 41 0 25 20 99 31 114 4 6 10 27 14 48 4 20 11 37 15 37 5 0 12 9 15 21 6 18 12 12 42 -38 19 -32 39 -65 44 -73 5 -8 18 -31 28 -51 11 -20 31 -43 45 -53 14 -9 26 -24 26 -34 0 -10 18 -35 39 -55 22 -21 45 -53 51 -71 7 -23 19 -36 36 -40 14 -4 28 -14 31 -24 7 -21 60 -72 75 -72 14 0 58 -48 58 -63 0 -7 13 -18 28 -25 16 -7 35 -25 43 -40 21 -40 35 -52 62 -52 21 0 27 -7 34 -37 6 -29 14 -39 32 -41 14 -2 26 -14 33 -33 7 -21 16 -29 34 -29 16 0 24 -6 24 -17 0 -10 9 -33 20 -51 11 -17 23 -50 26 -72 5 -29 15 -46 40 -65 18 -14 36 -25 41 -25 5 0 16 -9 26 -20 12 -15 29 -20 65 -20 42 0 53 5 82 34 18 19 42 36 54 38 20 3 21 10 26 133 4 102 9 135 23 155 9 13 17 35 17 47 0 13 4 23 9 23 11 0 41 79 41 107 0 21 6 38 36 108 7 17 21 62 32 100 11 39 31 92 46 119 14 27 26 54 26 61 0 7 9 20 20 30 11 10 20 22 20 26 0 19 63 149 72 149 6 0 12 -8 14 -18 3 -9 21 -28 40 -41 23 -16 37 -36 45 -64 6 -23 24 -55 40 -71 16 -16 29 -33 29 -36 0 -4 12 -13 26 -21 15 -7 44 -39 65 -69 21 -30 56 -73 78 -94 23 -22 41 -45 41 -52 0 -7 6 -19 13 -26 19 -20 83 -119 102 -158 10 -19 31 -48 47 -65 16 -16 31 -40 34 -52 4 -13 9 -23 14 -23 13 0 38 -77 33 -103 -3 -14 6 -45 22 -77 26 -51 26 -55 15 -117 -12 -62 -12 -65 14 -101 14 -21 26 -45 26 -54 0 -25 49 -67 86 -74 52 -10 82 3 140 58 l54 51 0 83 c0 45 -4 86 -10 89 -5 3 -19 36 -30 73 -22 75 -61 165 -72 170 -5 2 -8 10 -8 18 0 8 -11 36 -25 62 -14 26 -25 51 -25 57 0 5 -18 30 -40 54 -22 25 -40 47 -40 50 0 3 -15 23 -34 43 -19 20 -37 50 -41 66 -3 16 -20 42 -36 58 -17 16 -46 59 -65 97 -21 40 -41 67 -50 67 -18 0 -83 68 -84 88 0 14 -28 61 -46 77 -6 6 -25 30 -41 55 -17 25 -40 54 -52 64 -11 11 -21 28 -21 38 0 11 -9 31 -20 45 -11 14 -20 34 -20 45 0 10 -7 30 -16 43 -12 19 -14 38 -9 88 9 83 -6 109 -81 137 -63 23 -93 24 -150 2z"/>
 <path d="M11040 4767 c0 -21 -33 -30 -84 -23 -24 4 -55 2 -69 -3 -18 -7 -36 -7 -58 1 -24 8 -37 8 -51 -1 -11 -7 -28 -9 -39 -6 -12 4 -34 -3 -57 -17 -22 -14 -61 -25 -97 -29 -116 -13 -235 -34 -235 -41 0 -4 -55 -8 -122 -8 -106 0 -127 -3 -153 -20 -24 -16 -47 -20 -122 -20 -50 0 -94 -4 -97 -9 -9 -14 -65 -21 -162 -22 -49 0 -121 -5 -161 -10 -59 -8 -84 -7 -135 6 -89 24 -160 60 -181 93 -11 16 -39 15 -63 -3 -10 -8 -35 -15 -55 -15 -38 0 -59 -14 -59 -40 0 -9 -9 -25 -20 -35 -37 -33 -21 -145 21 -145 5 0 9 -6 9 -13 0 -13 100 -77 121 -77 8 0 39 -16 69 -37 30 -20 72 -47 92 -61 21 -13 40 -33 43 -43 4 -13 16 -19 36 -19 22 0 32 -6 38 -23 5 -13 16 -29 25 -36 9 -7 16 -19 16 -26 0 -15 22 -25 55 -25 12 0 28 -7 36 -16 7 -8 29 -24 49 -34 20 -10 53 -37 73 -59 20 -22 54 -49 74 -58 21 -10 39 -27 41 -37 2 -11 9 -24 16 -30 22 -21 92 -66 103 -66 6 0 23 -18 38 -40 16 -23 36 -40 47 -40 27 0 58 -18 58 -34 0 -15 48 -54 99 -80 18 -10 38 -30 44 -46 8 -22 22 -32 54 -42 24 -7 43 -16 43 -20 0 -5 26 -35 58 -68 31 -33 64 -68 73 -78 8 -10 26 -26 39 -35 13 -9 21 -20 17 -23 -4 -4 -64 -8 -134 -8 -101 -1 -135 3 -160 15 -30 16 -33 16 -49 -2 -14 -16 -29 -18 -118 -15 -69 2 -111 8 -133 19 -18 10 -34 13 -38 8 -3 -6 -13 -10 -23 -10 -96 -2 -137 1 -148 10 -10 8 -19 7 -35 -5 -19 -13 -23 -13 -36 0 -11 11 -19 12 -28 4 -8 -6 -40 -14 -72 -16 -88 -8 -100 -12 -138 -45 -27 -24 -35 -39 -35 -64 0 -19 -4 -37 -10 -40 -5 -3 -10 -21 -10 -40 0 -29 6 -36 48 -60 l47 -26 375 -6 c206 -3 391 -5 410 -4 19 1 164 3 321 4 277 1 287 0 338 -22 38 -16 64 -21 87 -16 90 16 155 138 117 216 -15 32 -24 38 -69 48 -29 7 -55 19 -58 27 -3 7 -16 14 -30 14 -15 0 -27 7 -30 18 -3 9 -31 37 -63 62 -92 73 -152 131 -174 166 -11 19 -29 34 -39 34 -10 0 -21 8 -24 18 -4 11 -17 25 -31 32 -13 7 -25 24 -27 38 -2 19 -16 31 -55 51 -32 16 -52 33 -52 44 -1 9 -7 17 -15 17 -25 0 -85 40 -91 61 -4 10 -10 19 -14 19 -4 0 -26 18 -49 40 -22 22 -48 40 -56 40 -8 0 -23 14 -33 30 -15 26 -23 30 -61 30 -35 0 -45 4 -49 20 -3 11 -9 20 -14 20 -5 0 -9 6 -9 13 0 13 -34 47 -48 47 -4 0 -23 17 -42 37 -19 20 -58 47 -86 60 -28 13 -62 37 -75 55 -37 49 -82 88 -101 88 -10 0 -18 4 -18 9 0 4 42 10 94 13 61 3 101 10 116 21 17 12 39 14 100 10 60 -5 85 -2 102 9 13 8 55 18 94 21 39 4 85 14 103 23 25 13 49 15 96 11 43 -4 68 -2 81 7 10 7 54 16 97 20 43 4 90 12 105 18 15 7 81 15 147 19 66 4 167 12 225 18 145 15 138 15 207 13 57 -2 64 -5 108 -45 53 -50 75 -87 75 -128 0 -15 5 -31 10 -34 6 -3 10 -16 10 -27 0 -22 9 -34 69 -94 30 -29 42 -34 82 -34 41 0 53 5 86 36 36 34 38 39 36 89 -2 28 -9 65 -18 81 -8 16 -15 40 -15 54 0 15 -4 30 -9 35 -5 6 -19 35 -32 65 -44 105 -138 230 -174 230 -8 0 -24 9 -35 20 -17 17 -32 21 -75 19 -30 -1 -60 3 -67 9 -8 6 -36 9 -68 6 -85 -7 -102 -7 -142 1 -31 6 -38 5 -38 -8z"/>
 <path d="M11967 4683 c-12 -11 -8 -23 8 -23 8 0 15 7 15 15 0 16 -12 20 -23 8z"/>
 <path d="M12715 4309 c-117 -25 -200 -87 -249 -184 -26 -52 -29 -68 -29 -154 0 -85 3 -102 27 -150 38 -74 81 -118 151 -154 54 -27 69 -30 155 -31 104 0 161 18 223 70 87 73 138 210 118 317 -25 137 -104 232 -226 270 -69 22 -123 27 -170 16z m140 -45 c17 -8 21 -11 10 -8 -11 4 -43 9 -70 11 -45 5 -70 1 -140 -21 -11 -4 -2 3 20 14 48 23 136 26 180 4z m12 -97 c60 -31 110 -98 126 -168 9 -36 -17 -118 -50 -161 -45 -58 -97 -82 -174 -81 -58 0 -72 4 -112 32 -68 47 -101 108 -100 188 0 50 5 71 22 93 11 16 21 32 21 35 0 10 43 45 70 57 88 39 130 40 197 5z m212 -197 c0 -30 -6 -68 -14 -85 -11 -23 -13 -24 -7 -5 4 14 7 60 7 102 0 43 3 70 7 60 4 -9 7 -42 7 -72z m-602 -27 c-2 -21 -4 -6 -4 32 0 39 2 55 4 38 2 -18 2 -50 0 -70z m331 -274 c-22 -5 -54 -5 -75 0 -33 8 -28 9 37 9 65 0 70 -1 38 -9z"/>
 <path d="M11890 4280 c0 -11 7 -20 15 -20 8 0 15 9 15 20 0 11 -7 20 -15 20 -8 0 -15 -9 -15 -20z"/>
 <path d="M11812 4183 c2 -10 10 -18 18 -18 22 0 18 29 -3 33 -14 3 -18 -1 -15 -15z"/>
 </g>
<g id="layer102" fill="#ff0000" stroke="none">
 <path d="M12613 4903 c-7 -2 -13 -13 -13 -24 0 -13 -7 -19 -24 -19 -14 0 -28 -4 -31 -10 -11 -17 -44 -11 -55 10 -7 14 -21 20 -43 20 -38 0 -57 -15 -57 -46 0 -23 -23 -34 -73 -34 -29 0 -59 -14 -89 -43 -14 -13 -22 -15 -36 -6 -14 9 -27 7 -60 -10 -23 -12 -42 -17 -42 -11 0 5 -11 10 -25 10 -19 0 -25 -5 -25 -22 0 -12 -14 -34 -32 -49 -20 -17 -29 -31 -23 -36 10 -8 11 -11 14 -64 1 -26 4 -29 21 -24 13 4 20 2 20 -7 0 -8 -12 -13 -30 -14 -28 -1 -31 2 -36 37 -5 29 -11 39 -25 39 -21 0 -21 -4 -19 -93 1 -40 -3 -62 -14 -73 -24 -23 -20 -44 8 -44 19 0 26 -7 31 -30 4 -16 11 -30 15 -30 13 0 90 40 125 65 47 35 55 38 49 21 -4 -10 -1 -16 7 -17 8 -1 1 -4 -16 -8 -24 -5 -30 -12 -30 -31 0 -18 5 -25 18 -24 17 2 17 0 3 -15 -9 -10 -16 -23 -16 -29 0 -7 -15 -12 -34 -12 -18 0 -45 -9 -59 -20 -30 -24 -35 -25 -58 -4 -17 15 -19 15 -30 -9 -9 -21 -9 -30 1 -42 10 -12 7 -18 -18 -32 -32 -18 -47 -48 -30 -59 13 -8 -38 -34 -67 -34 -34 0 -85 -47 -85 -76 0 -14 -4 -22 -10 -19 -28 17 -105 -58 -116 -115 -6 -29 -5 -30 32 -31 33 0 35 -2 17 -9 -12 -5 -27 -18 -33 -30 -9 -17 -14 -19 -25 -10 -8 7 -19 9 -25 5 -13 -8 -13 -35 1 -35 7 0 9 -12 5 -35 -6 -32 -5 -35 16 -35 16 0 31 12 48 40 14 22 28 40 32 40 5 0 8 7 8 15 0 8 9 24 21 36 13 13 19 28 15 41 -8 32 5 78 21 78 13 0 13 -3 3 -15 -10 -12 -8 -18 11 -35 32 -26 37 -25 70 10 29 29 39 70 18 70 -5 0 -7 5 -4 10 9 15 25 12 25 -5 0 -8 7 -15 15 -15 9 0 15 9 15 25 0 15 -6 25 -14 25 -8 0 -16 7 -20 15 -4 10 1 15 14 15 11 0 20 -7 20 -15 0 -8 9 -15 20 -15 11 0 23 7 26 15 4 8 11 15 16 15 9 0 73 50 125 98 13 12 26 22 28 22 2 0 21 16 42 35 21 19 50 40 65 46 16 6 28 17 28 23 0 20 67 49 112 49 27 0 56 8 79 23 29 18 53 24 116 25 57 2 81 7 90 18 10 14 15 14 33 3 12 -8 68 -16 128 -19 98 -5 113 -9 176 -42 73 -39 146 -100 146 -124 0 -8 7 -20 15 -27 8 -7 17 -27 21 -46 3 -19 10 -34 15 -34 12 0 11 -157 -1 -165 -5 -3 -10 -17 -10 -30 0 -68 -109 -203 -202 -251 -18 -9 -35 -20 -38 -24 -3 -4 -34 -17 -69 -28 -83 -28 -165 -29 -209 -2 -18 11 -38 20 -46 20 -7 0 -21 9 -31 20 -10 11 -24 20 -30 20 -7 0 -15 7 -19 15 -7 18 -43 20 -49 3 -3 -10 -7 -10 -21 1 -14 12 -19 11 -35 -3 -12 -11 -42 -18 -97 -20 -43 -2 -95 -10 -114 -17 -32 -11 -89 -63 -90 -81 0 -4 -15 -24 -34 -44 -36 -39 -52 -90 -40 -127 11 -33 81 -125 101 -131 10 -3 52 -5 93 -4 58 1 83 -4 111 -19 19 -12 55 -24 80 -28 24 -4 53 -14 64 -21 11 -8 27 -14 37 -14 9 0 23 -6 30 -13 7 -7 30 -21 51 -31 65 -30 115 -13 235 79 7 5 21 17 31 26 23 20 50 31 62 23 11 -6 -6 -23 -46 -46 -17 -9 -31 -26 -33 -37 -3 -19 2 -21 40 -21 24 0 68 7 98 15 78 21 92 20 88 -7 -3 -21 -10 -24 -71 -28 -62 -5 -70 -8 -97 -40 l-29 -34 -35 17 c-42 19 -69 13 -105 -26 -38 -42 -39 -157 -1 -157 6 0 19 -9 30 -20 15 -15 33 -20 73 -20 29 0 57 -4 62 -9 40 -39 500 -40 590 -1 11 5 47 11 79 15 33 3 64 10 70 14 6 5 29 12 51 16 22 4 51 14 65 21 14 7 54 25 90 40 95 38 234 111 262 137 13 12 36 28 51 36 15 8 56 41 92 74 47 43 65 67 65 85 0 20 3 22 14 13 30 -25 86 24 86 75 0 27 -4 34 -19 34 -28 0 -91 -39 -91 -56 0 -8 -4 -14 -10 -14 -19 0 -60 -52 -60 -77 0 -24 -2 -25 -40 -19 -33 5 -47 2 -80 -20 -22 -15 -40 -32 -40 -38 0 -16 -40 -40 -72 -43 -15 -2 -37 -12 -48 -23 -11 -11 -27 -20 -35 -20 -8 0 -29 -8 -47 -18 -18 -10 -89 -33 -158 -51 -69 -18 -134 -36 -145 -41 -11 -5 -53 -11 -94 -14 -41 -3 -79 -10 -85 -16 -13 -13 -41 -13 -64 0 -9 5 -43 12 -74 15 -46 5 -58 10 -58 24 0 16 10 17 108 13 106 -4 334 20 357 37 5 5 31 12 58 15 26 4 47 11 47 17 0 5 9 9 21 9 12 0 35 6 52 14 18 7 57 23 87 36 121 50 140 61 140 75 0 17 -45 21 -55 5 -3 -5 -15 -10 -25 -10 -10 0 -31 -5 -47 -12 -15 -6 -62 -19 -103 -29 -154 -35 -175 -41 -185 -50 -15 -15 -55 -11 -55 6 0 12 -14 15 -70 15 -43 0 -79 5 -93 14 -12 7 -40 16 -62 20 -22 3 -60 15 -85 27 -24 12 -61 24 -82 27 -39 5 -39 5 -18 24 11 10 20 23 20 28 0 6 7 10 15 10 8 0 24 10 35 23 20 20 22 21 31 5 11 -19 39 -25 39 -8 0 6 9 10 20 10 11 0 20 4 20 10 0 5 16 25 35 45 28 27 34 39 26 53 -7 13 -2 25 20 50 16 18 29 28 29 22 0 -5 7 -10 15 -10 8 0 15 7 15 15 0 8 -5 15 -10 15 -6 0 1 17 15 37 14 21 25 43 25 50 0 7 4 13 8 13 4 0 13 15 21 33 7 17 15 26 18 20 8 -20 31 -15 44 9 7 13 18 28 24 35 21 20 39 167 26 204 -16 47 -14 106 5 117 13 7 15 21 11 73 -5 67 -32 186 -47 204 -4 5 -11 27 -15 48 -4 21 -14 41 -21 44 -8 3 -14 14 -14 24 0 11 -6 22 -14 25 -8 3 -17 17 -21 31 -9 39 -242 263 -273 263 -19 0 -23 -4 -19 -19 3 -12 -1 -22 -11 -26 -21 -8 -23 -3 -24 46 0 47 -12 69 -35 69 -8 0 -26 9 -40 20 -14 11 -38 20 -54 20 -15 0 -31 5 -34 10 -3 6 -22 10 -41 10 -19 0 -34 -4 -34 -10 0 -5 -21 -10 -46 -10 -38 0 -47 4 -51 20 -7 27 -49 37 -72 16 -22 -20 -31 -20 -31 -2 0 8 -4 17 -9 20 -12 8 -163 16 -178 9z m-553 -314 c0 -11 -4 -17 -10 -14 -5 3 -10 13 -10 21 0 8 5 14 10 14 6 0 10 -9 10 -21z m9 -106 c34 8 23 -6 -27 -38 l-47 -30 3 37 c4 36 29 56 43 35 4 -6 16 -7 28 -4z m173 -105 c-6 -6 -15 -8 -19 -4 -4 4 -1 11 7 16 19 12 27 3 12 -12z"/>
 <path d="M11967 4683 c-12 -11 -8 -23 8 -23 8 0 15 7 15 15 0 16 -12 20 -23 8z"/>
 <path d="M11890 4280 c0 -11 7 -20 15 -20 8 0 15 9 15 20 0 11 -7 20 -15 20 -8 0 -15 -9 -15 -20z"/>
 <path d="M11812 4183 c2 -10 10 -18 18 -18 22 0 18 29 -3 33 -14 3 -18 -1 -15 -15z"/>
 </g>

</svg>